# xmcd
#
# Track frame offsets: 
#        150
#        13038
#        27399
#        50871
#        64638
#        84211
#        102817
#        119311
#        142124
#        160662
#        188834
#        222098
#        246643
#        307690
#
# Disc length: 4649 seconds
#
# Revision: 0
# Processed by: cddbd v1.5.2PL0 Copyright (c) Steve Scherf et al.
# Submitted via: ExactAudioCopy v0.99pb3
#
DISCID=bb12270e
DTITLE=Peter Green - The Anthology [CD2)
DYEAR=2008
DGENRE=Blues
TTITLE0=Black Magic Woman
TTITLE1=Albatross
TTITLE2=Ain't Nobodys Business
TTITLE3=Someday Baby
TTITLE4=Watch Out
TTITLE5=Ooh Baby
TTITLE6=Hartun's Boogie Woogie - Take One
TTITLE7=Love That Burns
TTITLE8=First Train Home
TTITLE9=Need Your Love So Bad
TTITLE10=Don't Goof With The Spook
TTITLE11=The Answer
TTITLE12=Homage To The God Of Light
TTITLE13=Oh Well - Part1 and Part 2
EXTD=
EXTT0=
EXTT1=
EXTT2=
EXTT3=
EXTT4=
EXTT5=
EXTT6=
EXTT7=
EXTT8=
EXTT9=
EXTT10=
EXTT11=
EXTT12=
EXTT13=
PLAYORDER=
